<?xml version="1.0" encoding="UTF-8"?>
<svg version="1.1" xmlns="http://www.w3.org/2000/svg" width="512" height="512">
<path d="M0 0 C168.96 0 337.92 0 512 0 C512 168.96 512 337.92 512 512 C343.04 512 174.08 512 0 512 C0 343.04 0 174.08 0 0 Z " fill="#FEFEFE" transform="translate(0,0)"/>
<path d="M0 0 C4.65173362 3.33488256 7.81108033 7.97088525 8.7890625 13.67578125 C9.72222496 23.9578491 8.71535107 33.95274697 7.625 44.1875 C7.49907471 45.39446533 7.37314941 46.60143066 7.2434082 47.8449707 C7.11409912 48.98281006 6.98479004 50.12064941 6.8515625 51.29296875 C6.73635254 52.3193042 6.62114258 53.34563965 6.50244141 54.40307617 C6 57 6 57 4 60 C3.63858045 62.32914823 3.30300475 64.66253478 3 67 C2.67 67.33 2.34 67.66 2 68 C1.71704371 70.07911364 1.47576822 72.16390161 1.25 74.25 C0.61088859 79.78268652 -0.47521005 85.02422952 -1.92919922 90.39892578 C-4.25582733 99.0964331 -5.52528001 107.35684456 -5.625 116.375 C-5.64771973 117.33148438 -5.67043945 118.28796875 -5.69384766 119.2734375 C-5.62325864 125.79077124 -4.3772131 129.13428735 0 134 C5.12727979 137.11658184 11.09569865 138.38710016 17 137 C21.39345132 134.35943362 21.39345132 134.35943362 23.63110352 129.96923828 C23.97173587 127.57628956 24.13945224 125.22687242 24.25 122.8125 C24.38419317 121.09615483 24.5208844 119.38000303 24.66015625 117.6640625 C24.74740967 116.44251465 24.74740967 116.44251465 24.83642578 115.19628906 C25.67026759 104.00040712 30.15744545 92.23094772 38 84 C40.18359375 83.1171875 40.18359375 83.1171875 42.4375 82.875 C43.17871094 82.76929688 43.91992188 82.66359375 44.68359375 82.5546875 C48.40194645 83.26951416 49.76026372 85.02146182 52 88 C52.4879928 90.90977072 52.67004363 93.11284225 52.5625 96 C52.54735352 96.74967041 52.53220703 97.49934082 52.51660156 98.27172852 C52.23957262 105.2711775 50.5494231 111.4838474 48 118 C47.63003906 118.95132813 47.26007813 119.90265625 46.87890625 120.8828125 C46.21345313 122.55497674 45.5335443 124.22154674 44.83203125 125.87890625 C43.08749528 130.32624443 42.86476738 134.14351905 42.875 138.9375 C42.87242187 140.14277344 42.86984375 141.34804688 42.8671875 142.58984375 C42.98178199 145.53222592 43.31737461 148.14489223 44 151 C44.66 151 45.32 151 46 151 C46 152.32 46 153.64 46 155 C46.5775 155.2475 47.155 155.495 47.75 155.75 C50 157 50 157 51.796875 158.88671875 C64.22098723 170.80417392 82.97010881 170.59226949 99 171 C99 171.66 99 172.32 99 173 C92.27851553 175.02532125 86.05973984 175.33424406 79.0625 175.3125 C78.02931641 175.32861328 76.99613281 175.34472656 75.93164062 175.36132812 C69.33454261 175.36550615 64.12234981 174.37144985 58 172 C56.845 171.71125 55.69 171.4225 54.5 171.125 C44.14698865 167.79724635 36.44847996 161.37138554 31 152 C31 151.34 31 150.68 31 150 C28.64828869 150.59861742 26.3140622 151.26924352 24 152 C23.67 152.66 23.34 153.32 23 154 C14.7505197 156.22958927 5.35503734 155.28539036 -3 154 C-3 153.34 -3 152.68 -3 152 C-3.66 151.95875 -4.32 151.9175 -5 151.875 C-9.32299691 150.6141259 -12.81391786 148.17863802 -16 145 C-16.734375 142.80078125 -16.734375 142.80078125 -17 141 C-18.32 141 -19.64 141 -21 141 C-21.13341797 141.82371094 -21.13341797 141.82371094 -21.26953125 142.6640625 C-23.86835037 150.97472472 -32.13677297 158.4326334 -38.125 164.5 C-38.98484497 165.38051025 -38.98484497 165.38051025 -39.86206055 166.27880859 C-43.62929459 170.00566211 -47.34078787 172.48857102 -52 175 C-52.70125 175.70125 -53.4025 176.4025 -54.125 177.125 C-58.64034582 181.64034582 -64.07320036 181.28315489 -70.08203125 181.32226562 C-71.20996094 181.31904297 -72.33789062 181.31582031 -73.5 181.3125 C-75.19189453 181.33666992 -75.19189453 181.33666992 -76.91796875 181.36132812 C-78.55185547 181.36229492 -78.55185547 181.36229492 -80.21875 181.36328125 C-81.20810547 181.36626221 -82.19746094 181.36924316 -83.21679688 181.37231445 C-86.45826424 180.93869711 -88.31432508 179.82062067 -91 178 C-91.71800781 177.65839844 -92.43601562 177.31679688 -93.17578125 176.96484375 C-103.07772569 172.20394542 -109.03969357 163.00722593 -113 153 C-118.68122072 136.35224174 -121.08787532 120.02263118 -116 103 C-113.52934504 98.65386186 -110.62029995 95.92886309 -106 94 C-102.75 93.875 -102.75 93.875 -100 94 C-100 94.66 -100 95.32 -100 96 C-99.4225 96.20625 -98.845 96.4125 -98.25 96.625 C-95.04839223 98.58153808 -93.81860794 100.72425676 -92 104 C-91.60834884 106.79531769 -91.41831528 109.20809521 -91.42578125 111.99609375 C-91.41161667 112.74786392 -91.39745209 113.49963409 -91.38285828 114.27418518 C-91.34118341 116.66210371 -91.32577465 119.04927037 -91.3125 121.4375 C-91.28327879 123.82180598 -91.24853815 126.2059301 -91.21000671 128.59010315 C-91.18782901 130.06815849 -91.17182442 131.54632454 -91.16316223 133.02452087 C-91.34292638 141.58273446 -91.34292638 141.58273446 -87.5 148.75 C-86.2625 149.86375 -86.2625 149.86375 -85 151 C-84.67 151.99 -84.34 152.98 -84 154 C-81.9377952 154.054348 -79.87517184 154.09294961 -77.8125 154.125 C-76.66394531 154.14820313 -75.51539063 154.17140625 -74.33203125 154.1953125 C-71.08259628 154.00484152 -68.91339479 153.39360127 -66 152 C-66 151.34 -66 150.68 -66 150 C-65.34 150 -64.68 150 -64 150 C-64 149.34 -64 148.68 -64 148 C-62.33333333 146.33333333 -60.66666667 144.66666667 -59 143 C-58.1646875 141.6078125 -58.1646875 141.6078125 -57.3125 140.1875 C-56.879375 139.465625 -56.44625 138.74375 -56 138 C-55.34 138 -54.68 138 -54 138 C-53.87625 137.4225 -53.7525 136.845 -53.625 136.25 C-52.98583433 133.94900359 -52.20694364 132.05890385 -51 130 C-50.34 129.67 -49.68 129.34 -49 129 C-48.26458495 127.2914614 -48.26458495 127.2914614 -47.6875 125.1875 C-45.61519247 118.58994951 -43.10413975 112.00893994 -39.88671875 105.87890625 C-38.54306234 103.03177526 -38.35800835 100.102739 -38 97 C-37.34 97 -36.68 97 -36 97 C-36.020625 96.195625 -36.04125 95.39125 -36.0625 94.5625 C-36 92 -36 92 -35 91 C-34.71418747 88.83776605 -34.47412151 86.66949625 -34.25 84.5 C-33.40651975 77.01585554 -32.01555798 69.68726439 -30.5 62.3125 C-28.98307812 54.92992843 -27.53878706 47.57826966 -26.45703125 40.1171875 C-25.86977703 36.1118126 -25.23106218 32.11754033 -24.5625 28.125 C-24.45212402 27.42246094 -24.34174805 26.71992188 -24.22802734 25.99609375 C-23.42320586 21.26847103 -22.00626609 17.35661475 -20 13 C-19.5875 11.824375 -19.175 10.64875 -18.75 9.4375 C-14.84918796 1.77519064 -8.78272984 -2.56162954 0 0 Z " fill="#191919" transform="translate(183,155)"/>
<path d="M0 0 C5.94 0 11.88 0 18 0 C19.75291252 5.25873757 21.22067637 10.51092405 22.58789062 15.87304688 C23.24798466 19.21288979 23.24798466 19.21288979 25 22 C26.98 14.74 28.96 7.48 31 0 C36.94 0 42.88 0 49 0 C49 14.85 49 29.7 49 45 C44.71 45 40.42 45 36 45 C35.67 36.09 35.34 27.18 35 18 C34.401875 20.413125 33.80375 22.82625 33.1875 25.3125 C31.54745916 31.90030073 29.8285266 38.46163216 28 45 C25.03 45 22.06 45 19 45 C16.36 35.43 13.72 25.86 11 16 C10.67 25.57 10.34 35.14 10 45 C6.7 45 3.4 45 0 45 C0 30.15 0 15.3 0 0 Z " fill="#09B64E" transform="translate(260,212)"/>
<path d="M0 0 C4.95927487 4.3475996 8.51407065 9.05606181 9.3359375 15.7265625 C9.4441002 23.75223454 8.64139242 31.50233956 3.421875 37.94921875 C-1.25798683 42.30233347 -6.0407541 43.72599575 -12.375 44.3125 C-18.66171287 43.77054199 -23.98000075 42.58919894 -28.375 37.8125 C-33.44280963 31.08357499 -34.93290811 24.34434479 -34 16 C-32.74316487 9.59014084 -30.17055489 4.13868711 -25 0 C-16.93858625 -4.12615167 -8.03292335 -4.27855882 0 0 Z " fill="#09B64E" transform="translate(435,214)"/>
<path d="M0 0 C4.310625 -0.04125 8.62125 -0.0825 13.0625 -0.125 C14.40836182 -0.14320801 15.75422363 -0.16141602 17.14086914 -0.18017578 C31.35090963 -0.24596792 31.35090963 -0.24596792 36.875 4.4375 C39.97434516 8.17494563 40.29428902 11.19797494 40.21484375 16 C39.89310914 18.99505672 38.9426827 20.72237201 37 23 C35.35302707 23.71393445 33.68714201 24.38699587 32 25 C32.24234375 25.5347998 32.4846875 26.06959961 32.734375 26.62060547 C33.82677465 29.03701451 34.91344904 31.45595579 36 33.875 C36.3815625 34.71675781 36.763125 35.55851562 37.15625 36.42578125 C37.69765625 37.63427734 37.69765625 37.63427734 38.25 38.8671875 C38.58515625 39.61081543 38.9203125 40.35444336 39.265625 41.12060547 C40 43 40 43 40 45 C35.05 45 30.1 45 25 45 C24.01 42.751875 23.02 40.50375 22 38.1875 C21.68675781 37.48391357 21.37351562 36.78032715 21.05078125 36.05541992 C19.80810092 33.19404984 19 31.15104967 19 28 C17.35 28 15.7 28 14 28 C14 33.61 14 39.22 14 45 C9.38 45 4.76 45 0 45 C0 30.15 0 15.3 0 0 Z " fill="#08B64E" transform="translate(356,212)"/>
<path d="M0 0 C11.22 0 22.44 0 34 0 C34 3.3 34 6.6 34 10 C27.07 10 20.14 10 13 10 C13 12.31 13 14.62 13 17 C18.61 17 24.22 17 30 17 C30 20.3 30 23.6 30 27 C24.39 27 18.78 27 13 27 C13 29.64 13 32.28 13 35 C19.93 35 26.86 35 34 35 C34 38.3 34 41.6 34 45 C22.78 45 11.56 45 0 45 C0 30.15 0 15.3 0 0 Z " fill="#06B64D" transform="translate(317,212)"/>
<path d="M0 0 C3.526875 -0.061875 7.05375 -0.12375 10.6875 -0.1875 C12.342052 -0.22846802 12.342052 -0.22846802 14.0300293 -0.27026367 C23.08281128 -0.34726987 23.08281128 -0.34726987 27 3 C30.16955197 6.93461624 30.53348798 10.02077887 30 15 C27.8 19.6 27.8 19.6 25 21 C25.40114409 24.40972473 26.10994157 26.16324657 28.0625 29.0625 C30 32 30 32 30 36 C27.03 36 24.06 36 21 36 C20.43732422 34.82630859 20.43732422 34.82630859 19.86328125 33.62890625 C19.35152344 32.61699219 18.83976562 31.60507812 18.3125 30.5625 C17.56419922 29.04849609 17.56419922 29.04849609 16.80078125 27.50390625 C15.00785816 24.41087373 15.00785816 24.41087373 10 24 C10 28.29 10 32.58 10 37 C6.7 37 3.4 37 0 37 C0 24.79 0 12.58 0 0 Z " fill="#161616" transform="translate(391,275)"/>
<path d="M0 0 C0.99386719 0.00902344 1.98773438 0.01804687 3.01171875 0.02734375 C4.15060547 0.04474609 4.15060547 0.04474609 5.3125 0.0625 C5.3125 1.3825 5.3125 2.7025 5.3125 4.0625 C5.9725 4.0625 6.6325 4.0625 7.3125 4.0625 C7.39886719 4.72894531 7.48523438 5.39539063 7.57421875 6.08203125 C8.54495865 12.44972873 10.31784254 17.56514078 13.13671875 23.3359375 C14.91101615 27.45042116 15.67072937 31.64673493 16.3125 36.0625 C14.85507537 36.14346803 13.39637193 36.20167774 11.9375 36.25 C11.12539063 36.28480469 10.31328125 36.31960938 9.4765625 36.35546875 C8.76242187 36.25878906 8.04828125 36.16210938 7.3125 36.0625 C5.3125 33.0625 5.3125 33.0625 5.3125 29.0625 C0.6925 29.0625 -3.9275 29.0625 -8.6875 29.0625 C-9.0175 31.0425 -9.3475 33.0225 -9.6875 35.0625 C-10.6875 36.0625 -10.6875 36.0625 -12.75390625 36.16015625 C-13.57761719 36.14855469 -14.40132813 36.13695312 -15.25 36.125 C-16.07628906 36.11597656 -16.90257812 36.10695313 -17.75390625 36.09765625 C-18.39199219 36.08605469 -19.03007812 36.07445312 -19.6875 36.0625 C-18.3017102 30.14266641 -16.3390637 24.36387918 -14.50439453 18.57104492 C-14.04191296 17.10314734 -13.58425109 15.63372282 -13.13134766 14.1628418 C-12.47667242 12.03834717 -11.80651063 9.91930871 -11.1328125 7.80078125 C-10.93269562 7.14040359 -10.73257874 6.48002594 -10.52639771 5.79963684 C-9.93017578 3.95825195 -9.93017578 3.95825195 -8.6875 1.0625 C-5.53819107 0.01273036 -3.29935544 -0.03881595 0 0 Z " fill="#111111" transform="translate(370.6875,274.9375)"/>
<path d="M0 0 C0.91007812 0.00902344 1.82015625 0.01804687 2.7578125 0.02734375 C3.80582031 0.04474609 3.80582031 0.04474609 4.875 0.0625 C6.63477481 3.91724483 8.09681542 7.67102139 9.25 11.75 C10.39151337 15.73315304 11.84732121 19.45073842 13.5 23.25 C15.37659287 27.61744587 16.5522699 31.32912518 16.875 36.0625 C13.905 36.0625 10.935 36.0625 7.875 36.0625 C7.215 34.0825 6.555 32.1025 5.875 30.0625 C-1.055 29.5675 -1.055 29.5675 -8.125 29.0625 C-8.455 31.0425 -8.785 33.0225 -9.125 35.0625 C-10.125 36.0625 -10.125 36.0625 -12.19140625 36.16015625 C-13.01511719 36.14855469 -13.83882813 36.13695312 -14.6875 36.125 C-15.51378906 36.11597656 -16.34007812 36.10695313 -17.19140625 36.09765625 C-17.82949219 36.08605469 -18.46757812 36.07445312 -19.125 36.0625 C-18.1270946 29.3303621 -16.22426061 23.46614102 -13.4921875 17.2421875 C-11.56259024 12.75449559 -9.90952599 8.17114954 -8.23828125 3.58203125 C-6.4052259 -0.56646244 -4.17465431 -0.05352121 0 0 Z " fill="#161616" transform="translate(302.125,274.9375)"/>
<path d="M0 0 C3.17554256 2.00197249 5.50937047 3.89025176 7.875 6.8125 C8.1875 9.625 8.1875 9.625 7.875 11.8125 C6.41757537 11.89346803 4.95887193 11.95167774 3.5 12 C2.68789063 12.03480469 1.87578125 12.06960938 1.0390625 12.10546875 C0.32492187 12.00878906 -0.38921875 11.91210938 -1.125 11.8125 C-1.785 10.8225 -2.445 9.8325 -3.125 8.8125 C-6.70857241 8.56234127 -6.70857241 8.56234127 -10.125 8.8125 C-9.84882467 10.75324861 -9.84882467 10.75324861 -9.125 12.8125 C-6.2434733 14.7335178 -4.53836716 15.28288712 -1.25 16.0625 C3.9942652 17.60357793 6.16509915 19.02500849 8.875 23.8125 C9.65807341 26.70646694 9.81869256 28.94603385 8.875 31.8125 C5.25863854 35.80229008 0.98754178 37.46729082 -4.2734375 38.05078125 C-9.77356215 38.23411874 -12.80363446 37.5308843 -17.125 33.8125 C-21.125 29.49671053 -21.125 29.49671053 -21.125 25.8125 C-19.35550905 25.70434775 -17.58412513 25.62683917 -15.8125 25.5625 C-14.82636719 25.51609375 -13.84023438 25.4696875 -12.82421875 25.421875 C-10.125 25.8125 -10.125 25.8125 -8.42578125 27.80859375 C-7.99652344 28.46988281 -7.56726563 29.13117188 -7.125 29.8125 C-3.9841115 30.20511106 -2.14576303 29.81942101 0.875 28.8125 C0.545 27.8225 0.215 26.8325 -0.125 25.8125 C-2.18908755 24.963264 -2.18908755 24.963264 -4.6875 24.4375 C-10.16361667 22.93687118 -16.20971964 20.9295249 -19.3203125 15.8671875 C-20.56401092 12.69153037 -20.48007509 10.18571335 -20.125 6.8125 C-15.64776776 -0.76435455 -8.1461934 -3.09555349 0 0 Z " fill="#1C1C1C" transform="translate(271.125,274.1875)"/>
<path d="M0 0 C6.1565625 -0.0309375 6.1565625 -0.0309375 12.4375 -0.0625 C14.38160767 -0.07615601 14.38160767 -0.07615601 16.36499023 -0.09008789 C17.88394897 -0.09383423 17.88394897 -0.09383423 19.43359375 -0.09765625 C20.47572021 -0.10289307 21.51784668 -0.10812988 22.59155273 -0.11352539 C25 0 25 0 26 1 C26 2.98 26 4.96 26 7 C21.05 7 16.1 7 11 7 C11 9.64 11 12.28 11 15 C15.62 15 20.24 15 25 15 C25 17.64 25 20.28 25 23 C20.38 23 15.76 23 11 23 C11 27.29 11 31.58 11 36 C7.37 36 3.74 36 0 36 C0 24.12 0 12.24 0 0 Z " fill="#292929" transform="translate(323,275)"/>
<path d="M0 0 C0.99386719 0.00902344 1.98773438 0.01804687 3.01171875 0.02734375 C4.15060547 0.04474609 4.15060547 0.04474609 5.3125 0.0625 C5.3125 1.3825 5.3125 2.7025 5.3125 4.0625 C5.9725 4.0625 6.6325 4.0625 7.3125 4.0625 C7.39886719 4.72894531 7.48523438 5.39539063 7.57421875 6.08203125 C8.54495865 12.44972873 10.31784254 17.56514078 13.13671875 23.3359375 C14.91101615 27.45042116 15.67072937 31.64673493 16.3125 36.0625 C14.85507537 36.14346803 13.39637193 36.20167774 11.9375 36.25 C11.12539063 36.28480469 10.31328125 36.31960938 9.4765625 36.35546875 C8.76242187 36.25878906 8.04828125 36.16210938 7.3125 36.0625 C5.3125 33.0625 5.3125 33.0625 5.3125 29.0625 C0.6925 29.0625 -3.9275 29.0625 -8.6875 29.0625 C-6.6875 27.0625 -6.6875 27.0625 -3.6875 25.0625 C-3.3575 24.7325 -3.0275 24.4025 -2.6875 24.0625 C-4.0075 23.7325 -5.3275 23.4025 -6.6875 23.0625 C-6.08825776 18.86780429 -5.11250059 15.05250166 -3.6875 11.0625 C-1.75 11.375 -1.75 11.375 0.3125 12.0625 C0.6425 13.0525 0.9725 14.0425 1.3125 15.0625 C1.9725 14.7325 2.6325 14.4025 3.3125 14.0625 C3.9725 14.3925 4.6325 14.7225 5.3125 15.0625 C5.2403125 14.45921875 5.168125 13.8559375 5.09375 13.234375 C5.0009375 12.43515625 4.908125 11.6359375 4.8125 10.8125 C4.7196875 10.02359375 4.626875 9.2346875 4.53125 8.421875 C4.3125 6.0625 4.3125 6.0625 4.3125 2.0625 C0.3525 2.0625 -3.6075 2.0625 -7.6875 2.0625 C-8.0175 3.0525 -8.3475 4.0425 -8.6875 5.0625 C-8.6875 3.7425 -8.6875 2.4225 -8.6875 1.0625 C-5.53819107 0.01273036 -3.29935544 -0.03881595 0 0 Z " fill="#171718" transform="translate(370.6875,274.9375)"/>
<path d="M0 0 C2.97 0 5.94 0 9 0 C9 11.88 9 23.76 9 36 C6.03 36 3.06 36 0 36 C0 24.12 0 12.24 0 0 Z " fill="#161616" transform="translate(428,275)"/>
<path d="M0 0 C3.4375 0.1875 3.4375 0.1875 7 1 C9.85409281 4.59301652 9.29445634 9.13586919 9.25 13.5 C9.25773437 14.25925781 9.26546875 15.01851562 9.2734375 15.80078125 C9.24782522 23.11308722 9.24782522 23.11308722 7 26 C3.625 27.0625 3.625 27.0625 0 27 C-3.14258927 24.13650392 -3.94382967 22.43167119 -4.49609375 18.1875 C-4.4974107 16.79153065 -4.47740534 15.39539949 -4.4375 14 C-4.44458984 13.30132812 -4.45167969 12.60265625 -4.45898438 11.8828125 C-4.399295 7.01583249 -3.49563389 3.49563389 0 0 Z " fill="#F8FCF9" transform="translate(420,221)"/>
<path d="M0 0 C7.59 0 15.18 0 23 0 C22.67 0.66 22.34 1.32 22 2 C20.68 1.67 19.36 1.34 18 1 C18 1.99 18 2.98 18 4 C14.7 4.33 11.4 4.66 8 5 C8 8.63 8 12.26 8 16 C10.64 16 13.28 16 16 16 C16 16.33 16 16.66 16 17 C12.04 17.495 12.04 17.495 8 18 C8 18.66 8 19.32 8 20 C8.99 20.33 9.98 20.66 11 21 C9.68 21 8.36 21 7 21 C7 24.96 7 28.92 7 33 C4.69 33 2.38 33 0 33 C0 22.11 0 11.22 0 0 Z " fill="#0C0C0C" transform="translate(393,277)"/>
<path d="M0 0 C0.91007812 0.00902344 1.82015625 0.01804687 2.7578125 0.02734375 C3.80582031 0.04474609 3.80582031 0.04474609 4.875 0.0625 C5.43516748 1.47195366 5.97248502 2.8905031 6.5 4.3125 C6.80164063 5.10140625 7.10328125 5.8903125 7.4140625 6.703125 C7.875 9.0625 7.875 9.0625 7.1484375 11.296875 C5.875 13.0625 5.875 13.0625 2.875 14.0625 C2.875 16.7025 2.875 19.3425 2.875 22.0625 C-0.095 22.0625 -3.065 22.0625 -6.125 22.0625 C-5.465 18.7625 -4.805 15.4625 -4.125 12.0625 C-4.785 12.0625 -5.445 12.0625 -6.125 12.0625 C-6.2075 12.68125 -6.29 13.3 -6.375 13.9375 C-7.125 16.0625 -7.125 16.0625 -9.0625 17.1875 C-9.743125 17.47625 -10.42375 17.765 -11.125 18.0625 C-11.785 18.7225 -12.445 19.3825 -13.125 20.0625 C-12.51080345 15.51468513 -11.33566249 11.52935365 -9.6875 7.25 C-9.25566406 6.10917969 -8.82382812 4.96835937 -8.37890625 3.79296875 C-6.40521536 -0.50488152 -4.39091262 -0.05629375 0 0 Z " fill="#1F1F1F" transform="translate(302.125,274.9375)"/>
<path d="M0 0 C2.63651959 1.00808102 5.09712767 2.05448625 7.5625 3.4375 C19.17393863 8.71542665 31.47248627 8.6813547 44 9 C44 9.66 44 10.32 44 11 C37.27851553 13.02532125 31.05973984 13.33424406 24.0625 13.3125 C23.02931641 13.32861328 21.99613281 13.34472656 20.93164062 13.36132812 C14.33544487 13.36550558 9.12048775 12.37516163 3 10 C1.80375 9.690625 0.6075 9.38125 -0.625 9.0625 C-4.52640387 7.83428026 -7.51936546 6.13100074 -11 4 C-11 3.67 -11 3.34 -11 3 C-9.35 3 -7.7 3 -6 3 C-6 3.99 -6 4.98 -6 6 C-4.35 6 -2.7 6 -1 6 C-0.67 4.02 -0.34 2.04 0 0 Z " fill="#2A2A2A" transform="translate(238,317)"/>
<path d="M0 0 C3.568125 -0.04125 7.13625 -0.0825 10.8125 -0.125 C11.93374268 -0.14320801 13.05498535 -0.16141602 14.21020508 -0.18017578 C15.53894653 -0.18766846 15.53894653 -0.18766846 16.89453125 -0.1953125 C17.80050049 -0.20578613 18.70646973 -0.21625977 19.63989258 -0.22705078 C22 0 22 0 25 2 C17.41 2 9.82 2 2 2 C2 12.89 2 23.78 2 35 C4.31 35 6.62 35 9 35 C9 31.04 9 27.08 9 23 C10.65 23 12.3 23 14 23 C12.68 23.33 11.36 23.66 10 24 C10 28.29 10 32.58 10 37 C6.7 37 3.4 37 0 37 C0 24.79 0 12.58 0 0 Z " fill="#585858" transform="translate(391,275)"/>
<path d="M0 0 C1.65 0 3.3 0 5 0 C5.55353075 14.78132118 5.55353075 14.78132118 2 21 C0.35 21 -1.3 21 -3 21 C-4.26742402 16.56401594 -3.64880874 13.26935546 -2.625 8.8125 C-2.34914062 7.58144531 -2.07328125 6.35039062 -1.7890625 5.08203125 C-1 2 -1 2 0 0 Z " fill="#9B9B9B" transform="translate(171,190)"/>
<path d="M0 0 C1.98 0 3.96 0 6 0 C6.04241723 2.33294775 6.04092937 4.66702567 6 7 C5.67 7.33 5.34 7.66 5 8 C4.6301145 9.82630965 4.30326536 11.66145374 4 13.5 C3.11111111 18.88888889 3.11111111 18.88888889 2 20 C0.33382885 20.04063832 -1.33388095 20.042721 -3 20 C-3.40850553 12.91923749 -1.90420731 6.80074041 0 0 Z " fill="#D3D2D3" transform="translate(164,226)"/>
<path d="M0 0 C1.67542976 0.28604898 3.34385343 0.61781233 5 1 C4.52947186 7.35212986 3.42004887 13.51300571 0 19 C-3.25 20.125 -3.25 20.125 -6 20 C-5.5383261 13.88282085 -4.52757089 4.52757089 0 0 Z " fill="#E2E1E2" transform="translate(156,262)"/>
<path d="M0 0 C1.65 0.33 3.3 0.66 5 1 C4.52112335 5.76264597 2.50511358 8.22641652 -0.5625 11.8125 C-1.80193359 13.27623047 -1.80193359 13.27623047 -3.06640625 14.76953125 C-3.70449219 15.50558594 -4.34257812 16.24164063 -5 17 C-6.32 16.34 -7.64 15.68 -9 15 C-8.6875 13.0625 -8.6875 13.0625 -8 11 C-7.01 10.67 -6.02 10.34 -5 10 C-4.6550855 8.66961551 -4.32483418 7.33542939 -4 6 C-2.71203834 3.97048465 -1.38442 1.96498322 0 0 Z " fill="#E0E0E0" transform="translate(140,296)"/>
<path d="M0 0 C1.62463842 -0.05395478 3.24978541 -0.09277195 4.875 -0.125 C5.77992188 -0.14820313 6.68484375 -0.17140625 7.6171875 -0.1953125 C10 0 10 0 12 2 C12.125 4.625 12.125 4.625 12 7 C11.34 7 10.68 7 10 7 C10 7.66 10 8.32 10 9 C6.7 9 3.4 9 0 9 C0 6.03 0 3.06 0 0 Z " fill="#F7F7F7" transform="translate(400,282)"/>
<path d="M0 0 C2.31 0 4.62 0 7 0 C7.66 1.32 8.32 2.64 9 4 C11.97 4 14.94 4 18 4 C18.33 3.01 18.66 2.02 19 1 C19 2.65 19 4.3 19 6 C16.36 6 13.72 6 11 6 C11 6.99 11 7.98 11 9 C11.99 9.33 12.98 9.66 14 10 C8.35002579 9.00294573 3.44694123 7.76279642 -1 4 C-0.67 2.68 -0.34 1.36 0 0 Z " fill="#C2C2C2" transform="translate(261,282)"/>
<path d="M0 0 C-0.33 1.32 -0.66 2.64 -1 4 C-2.32 4 -3.64 4 -5 4 C-5 4.66 -5 5.32 -5 6 C-12.76472771 8.12755215 -20.04177673 8.23586592 -28.0625 8.125 C-29.30966797 8.11597656 -30.55683594 8.10695313 -31.84179688 8.09765625 C-34.89473504 8.07426209 -37.94726306 8.04148174 -41 8 C-41 7.34 -41 6.68 -41 6 C-40.22285645 6.00523682 -39.44571289 6.01047363 -38.64501953 6.01586914 C-35.13835451 6.03660156 -31.63170237 6.04964821 -28.125 6.0625 C-26.90167969 6.07087891 -25.67835938 6.07925781 -24.41796875 6.08789062 C-23.25136719 6.09111328 -22.08476562 6.09433594 -20.8828125 6.09765625 C-19.80402832 6.10289307 -18.72524414 6.10812988 -17.61376953 6.11352539 C-15.01767814 6.17883106 -15.01767814 6.17883106 -13 5 C-11.00039988 4.960008 -8.99952758 4.95653201 -7 5 C-7 4.34 -7 3.68 -7 3 C-7.62044189 3.01047363 -8.24088379 3.02094727 -8.88012695 3.03173828 C-11.69087677 3.07330886 -14.5015619 3.09932933 -17.3125 3.125 C-18.28896484 3.14175781 -19.26542969 3.15851563 -20.27148438 3.17578125 C-21.20927734 3.18222656 -22.14707031 3.18867188 -23.11328125 3.1953125 C-23.97735596 3.20578613 -24.84143066 3.21625977 -25.73168945 3.22705078 C-28 3 -28 3 -31 1 C-29.89543457 1.00785522 -29.89543457 1.00785522 -28.76855469 1.01586914 C-25.42904515 1.03666867 -22.08954926 1.04966968 -18.75 1.0625 C-17.59113281 1.07087891 -16.43226563 1.07925781 -15.23828125 1.08789062 C-14.12324219 1.09111328 -13.00820313 1.09433594 -11.859375 1.09765625 C-10.83295898 1.10289307 -9.80654297 1.10812988 -8.74902344 1.11352539 C-5.73184115 0.98892594 -2.98421429 0 0 0 Z " fill="#C0C0C0" transform="translate(289,323)"/>
<path d="M0 0 C1.62463842 -0.05395478 3.24978541 -0.09277195 4.875 -0.125 C5.77992188 -0.14820313 6.68484375 -0.17140625 7.6171875 -0.1953125 C10 0 10 0 12 2 C11.44444444 6.55555556 11.44444444 6.55555556 10 8 C8.31391034 8.07205511 6.62499341 8.08386068 4.9375 8.0625 C4.01839844 8.05347656 3.09929687 8.04445312 2.15234375 8.03515625 C1.44207031 8.02355469 0.73179687 8.01195312 0 8 C0 5.36 0 2.72 0 0 Z " fill="#F5FBF6" transform="translate(370,222)"/>
<path d="M0 0 C5.98551772 1.50170462 11.61255621 2.94226163 17 6 C17 6.99 17 7.98 17 9 C13.76746204 11.15502531 12.74849077 11.46856135 9 11 C7.1875 9.625 7.1875 9.625 6 8 C6 7.34 6 6.68 6 6 C2.7 6 -0.6 6 -4 6 C-4 5.67 -4 5.34 -4 5 C-1.03 5 1.94 5 5 5 C4.67 4.34 4.34 3.68 4 3 C1.97536745 2.34786708 1.97536745 2.34786708 0 2 C0 1.34 0 0.68 0 0 Z " fill="#CBCBCB" transform="translate(255,294)"/>
<path d="M0 0 C1.890625 0.2578125 1.890625 0.2578125 4 1 C5.046875 2.7421875 5.046875 2.7421875 5.75 4.875 C6.11351562 5.92300781 6.11351562 5.92300781 6.484375 6.9921875 C7 9 7 9 7 12 C3.7 12 0.4 12 -3 12 C-2.40075776 7.80530429 -1.42500059 3.99000166 0 0 Z " fill="#8D8D8D" transform="translate(367,286)"/>
<path d="M0 0 C0.99 0 1.98 0 3 0 C3.29530838 6.49678438 2.17293889 12.6221448 1 19 C-0.32 19 -1.64 19 -3 19 C-2.67 14.38 -2.34 9.76 -2 5 C-1.34 5 -0.68 5 0 5 C0 3.35 0 1.7 0 0 Z " fill="#F5F5F5" transform="translate(172,191)"/>
<path d="M0 0 C0.66 0 1.32 0 2 0 C6.383568 8.76713599 2.2872886 24.6096894 1 34 C0.34 34 -0.32 34 -1 34 C-0.9278125 32.88625 -0.855625 31.7725 -0.78125 30.625 C-0.14913979 20.40081447 0.12558879 10.24246381 0 0 Z " fill="#D6D5D6" transform="translate(191,169)"/>
<path d="M0 0 C0.99 0 1.98 0 3 0 C4.60355101 3.50776784 5.22036864 6.14354879 5 10 C2.03 10 -0.94 10 -4 10 C-3.06588007 6.2635203 -1.77257035 3.39100415 0 0 Z " fill="#ADADAD" transform="translate(300,287)"/>
<path d="M0 0 C6.93 0 13.86 0 21 0 C21 0.66 21 1.32 21 2 C14.15863911 4.08467103 7.81198191 4.30178303 0.6875 4.25 C-0.93768555 4.26160156 -0.93768555 4.26160156 -2.59570312 4.2734375 C-3.63275391 4.27085937 -4.66980469 4.26828125 -5.73828125 4.265625 C-6.67712158 4.26336914 -7.61596191 4.26111328 -8.58325195 4.25878906 C-11 4 -11 4 -14 2 C-5.75 2 2.5 2 11 2 C5.555 1.505 5.555 1.505 0 1 C0 0.67 0 0.34 0 0 Z " fill="#565656" transform="translate(261,326)"/>
<path d="M0 0 C3.3 0.33 6.6 0.66 10 1 C10 1.66 10 2.32 10 3 C14.29 3 18.58 3 23 3 C21 5 21 5 17.0859375 5.1953125 C15.51550649 5.18200376 13.94513779 5.15813602 12.375 5.125 C11.57320313 5.11597656 10.77140625 5.10695313 9.9453125 5.09765625 C7.96341477 5.07406223 5.98167019 5.03819065 4 5 C4 4.34 4 3.68 4 3 C2.02 3 0.04 3 -2 3 C-1.34 2.67 -0.68 2.34 0 2 C0 1.34 0 0.68 0 0 Z " fill="#121213" transform="translate(251,324)"/>
<path d="M0 0 C1.01360115 3.61756641 0.92967897 6.49661497 0.5625 10.25 C0.40974609 11.86648438 0.40974609 11.86648438 0.25390625 13.515625 C0.17011719 14.33546875 0.08632812 15.1553125 0 16 C-0.66 16 -1.32 16 -2 16 C-1.67 22.27 -1.34 28.54 -1 35 C-1.66 34.67 -2.32 34.34 -3 34 C-3.08858959 30.39599373 -3.14091522 26.79227455 -3.1875 23.1875 C-3.21263672 22.18267578 -3.23777344 21.17785156 -3.26367188 20.14257812 C-3.33284884 12.97123275 -2.23677823 6.80952291 0 0 Z " fill="#ADADAD" transform="translate(180,248)"/>
<path d="M0 0 C1.35471114 3.38677785 0.61438483 5.59436505 -0.46142578 8.97509766 C-1.68982004 13.59354823 -1.77714351 18.48470827 -2.12304688 23.23632812 C-2.79114069 30.82611463 -2.79114069 30.82611463 -6 34 C-5.40257863 28.324497 -4.72633443 22.66042259 -4 17 C-3.7525 15.0509375 -3.7525 15.0509375 -3.5 13.0625 C-3 10 -3 10 -2 9 C-1.60851239 7.48834346 -1.26027543 5.96530368 -0.9375 4.4375 C-0.76089844 3.61121094 -0.58429688 2.78492188 -0.40234375 1.93359375 C-0.26957031 1.29550781 -0.13679687 0.65742188 0 0 Z " fill="#989898" transform="translate(187,213)"/>
<path d="M0 0 C3.375 -0.125 3.375 -0.125 7 0 C9 2 9 2 9 6 C5.7 5.34 2.4 4.68 -1 4 C-0.67 2.68 -0.34 1.36 0 0 Z " fill="#EAEBEA" transform="translate(261,282)"/>
<path d="M0 0 C3.3 0 6.6 0 10 0 C10.33 0.66 10.66 1.32 11 2 C8.03 2 5.06 2 2 2 C2 3.98 2 5.96 2 8 C4.64 8 7.28 8 10 8 C10 8.33 10 8.66 10 9 C6.7 9 3.4 9 0 9 C0 6.03 0 3.06 0 0 Z " fill="#ACACAC" transform="translate(400,282)"/>
<path d="M0 0 C0.91007813 0.00902344 1.82015625 0.01804688 2.7578125 0.02734375 C3.80582031 0.04474609 3.80582031 0.04474609 4.875 0.0625 C5.205 0.7225 5.535 1.3825 5.875 2.0625 C5.28332031 2.00449219 4.69164062 1.94648438 4.08203125 1.88671875 C-1.33458781 1.54110163 -1.33458781 1.54110163 -5.875 4.3125 C-6.6175 5.22 -7.36 6.1275 -8.125 7.0625 C-9.77364545 8.41805293 -11.43503995 9.75881653 -13.125 11.0625 C-13.125 7.51709812 -12.53114728 7.00242636 -10.25 4.4375 C-9.71632812 3.82648438 -9.18265625 3.21546875 -8.6328125 2.5859375 C-5.87748044 -0.19794722 -3.7805265 -0.04846829 0 0 Z " fill="#4A4A4A" transform="translate(178.125,154.9375)"/>
<path d="M0 0 C0.99386719 0.00902344 1.98773438 0.01804687 3.01171875 0.02734375 C4.15060547 0.04474609 4.15060547 0.04474609 5.3125 0.0625 C5.3125 1.3825 5.3125 2.7025 5.3125 4.0625 C5.9725 4.0625 6.6325 4.0625 7.3125 4.0625 C7.3125 6.0425 7.3125 8.0225 7.3125 10.0625 C4.68863513 7.00132432 4.3125 6.33076873 4.3125 2.0625 C0.3525 2.0625 -3.6075 2.0625 -7.6875 2.0625 C-8.0175 3.0525 -8.3475 4.0425 -8.6875 5.0625 C-8.6875 3.7425 -8.6875 2.4225 -8.6875 1.0625 C-5.53819107 0.01273036 -3.29935544 -0.03881595 0 0 Z " fill="#6B6B6B" transform="translate(370.6875,274.9375)"/>
<path d="M0 0 C0.66 0 1.32 0 2 0 C2.43684211 5.24210526 2.43684211 5.24210526 2 8 C-0.375 10.5 -0.375 10.5 -3 12 C-3.66 12 -4.32 12 -5 12 C-4.625 10.0625 -4.625 10.0625 -4 8 C-3.34 7.67 -2.68 7.34 -2 7 C-1.26924352 4.6859378 -0.59861742 2.35171131 0 0 Z " fill="#191919" transform="translate(278,298)"/>
<path d="M0 0 C0.33 0 0.66 0 1 0 C1.1799928 5.21979128 0.97094808 9.07262981 -1 14 C-1.66 14 -2.32 14 -3 14 C-3 16.31 -3 18.62 -3 21 C-3.66 21.33 -4.32 21.66 -5 22 C-4.67 18.7 -4.34 15.4 -4 12 C-3.34 12 -2.68 12 -2 12 C-2 9.69 -2 7.38 -2 5 C-1.34 5 -0.68 5 0 5 C0 3.35 0 1.7 0 0 Z " fill="#939393" transform="translate(148,238)"/>
<path d="M0 0 C0 0.33 0 0.66 0 1 C-4.455 1.495 -4.455 1.495 -9 2 C-9 2.66 -9 3.32 -9 4 C-9.66 4 -10.32 4 -11 4 C-11 4.66 -11 5.32 -11 6 C-12.32 6.33 -13.64 6.66 -15 7 C-15 7.99 -15 8.98 -15 10 C-15.66 10 -16.32 10 -17 10 C-15.64844718 5.57673622 -13.80109562 3.59587018 -10 1 C-6.52674819 -0.1577506 -3.63932552 -0.06866652 0 0 Z " fill="#69696A" transform="translate(268,273)"/>
<path d="M0 0 C0 0.33 0 0.66 0 1 C-0.969375 1.28875 -1.93875 1.5775 -2.9375 1.875 C-6.10664203 2.64214682 -6.10664203 2.64214682 -7 5 C-7.66 5 -8.32 5 -9 5 C-9 5.66 -9 6.32 -9 7 C-10.65 7.33 -12.3 7.66 -14 8 C-11.72632717 1.63371608 -6.41192463 -0.61065949 0 0 Z " fill="#3F403F" transform="translate(83,249)"/>
<path d="M0 0 C0.99 0.33 1.98 0.66 3 1 C3 2.32 3 3.64 3 5 C-0.63 5 -4.26 5 -8 5 C-8.33 4.34 -8.66 3.68 -9 3 C-6.03 3 -3.06 3 0 3 C0 2.01 0 1.02 0 0 Z " fill="#BDBDBD" transform="translate(421,308)"/>
<path d="M0 0 C0.66 0 1.32 0 2 0 C2.33 2.97 2.66 5.94 3 9 C1.35 9 -0.3 9 -2 9 C-1.34 6.03 -0.68 3.06 0 0 Z " fill="#F6F6F6" transform="translate(368,287)"/>
<path d="M0 0 C1.31052767 4.30422506 0.45785552 7.9370534 -0.4375 12.25 C-0.58509766 12.99507812 -0.73269531 13.74015625 -0.88476562 14.5078125 C-1.2488694 16.34007665 -1.62341409 18.17026053 -2 20 C-2.33 20 -2.66 20 -3 20 C-2.88641524 17.04081802 -2.75966914 14.08323217 -2.625 11.125 C-2.5940625 10.28324219 -2.563125 9.44148437 -2.53125 8.57421875 C-2.49257812 7.76855469 -2.45390625 6.96289062 -2.4140625 6.1328125 C-2.3826416 5.38918457 -2.3512207 4.64555664 -2.31884766 3.87939453 C-2 2 -2 2 0 0 Z " fill="#BDBDBD" transform="translate(157,188)"/>
<path d="M0 0 C0.66 0.33 1.32 0.66 2 1 C2 2.32 2 3.64 2 5 C-1.63 5 -5.26 5 -9 5 C-9 4.01 -9 3.02 -9 2 C-6.03 2.33 -3.06 2.66 0 3 C0 2.01 0 1.02 0 0 Z " fill="#C3C3C3" transform="translate(387,308)"/>
<path d="M0 0 C0.66 0 1.32 0 2 0 C2 0.66 2 1.32 2 2 C5.3 1.67 8.6 1.34 12 1 C11.67 1.99 11.34 2.98 11 4 C7.37 4 3.74 4 0 4 C0 2.68 0 1.36 0 0 Z " fill="#C2C2C2" transform="translate(281,309)"/>
<path d="M0 0 C0.33 0 0.66 0 1 0 C1.22084624 6.09781001 1.01167675 11.21642935 -1 17 C-1.33 17 -1.66 17 -2 17 C-1.85978195 14.35375716 -1.71310224 11.70815422 -1.5625 9.0625 C-1.52318359 8.30775391 -1.48386719 7.55300781 -1.44335938 6.77539062 C-1.11328125 1.11328125 -1.11328125 1.11328125 0 0 Z " fill="#0A0A0B" transform="translate(185,212)"/>
<path d="M0 0 C0.99 0.66 1.98 1.32 3 2 C2.62403791 4.78211944 2.32681541 6.5879284 0.5625 8.8125 C-1 10 -1 10 -3 10 C-2.01 6.7 -1.02 3.4 0 0 Z " fill="#292929" transform="translate(160,267)"/>
<path d="M0 0 C2 2 2 2 2.125 4.625 C2.08375 5.40875 2.0425 6.1925 2 7 C0.68 7 -0.64 7 -2 7 C-2.33 8.32 -2.66 9.64 -3 11 C-3.33 10.34 -3.66 9.68 -4 9 C-3.22265625 6.8359375 -3.22265625 6.8359375 -2.0625 4.375 C-1.68222656 3.55773437 -1.30195313 2.74046875 -0.91015625 1.8984375 C-0.60980469 1.27195312 -0.30945313 0.64546875 0 0 Z " fill="#414141" transform="translate(288,295)"/>
<path d="M0 0 C0.66 0 1.32 0 2 0 C2 1.65 2 3.3 2 5 C2.66 5 3.32 5 4 5 C4 5.99 4 6.98 4 8 C2.35 8 0.7 8 -1 8 C-0.67 5.36 -0.34 2.72 0 0 Z " fill="#FAFAFA" transform="translate(300,288)"/>
<path d="M0 0 C-0.33 1.32 -0.66 2.64 -1 4 C-2.98 4.33 -4.96 4.66 -7 5 C-7 4.34 -7 3.68 -7 3 C-7.66 2.67 -8.32 2.34 -9 2 C-2.25 0 -2.25 0 0 0 Z " fill="#939293" transform="translate(289,323)"/>
<path d="M0 0 C0.66 0.33 1.32 0.66 2 1 C2 1.99 2 2.98 2 4 C-1.3 4 -4.6 4 -8 4 C-8 3.34 -8 2.68 -8 2 C-5.36 2 -2.72 2 0 2 C0 1.34 0 0.68 0 0 Z " fill="#C0C0C0" transform="translate(319,309)"/>
<path d="M0 0 C0.66 0 1.32 0 2 0 C1.42865502 3.3138009 0.50248134 4.78626651 -2 7 C-2.556875 7.556875 -3.11375 8.11375 -3.6875 8.6875 C-4.120625 9.120625 -4.55375 9.55375 -5 10 C-5.66 9.67 -6.32 9.34 -7 9 C-5.6875 7 -5.6875 7 -4 5 C-3.01 5 -2.02 5 -1 5 C-0.67 3.35 -0.34 1.7 0 0 Z " fill="#242424" transform="translate(147,297)"/>
<path d="M0 0 C0.33 1.32 0.66 2.64 1 4 C-1.475 5.485 -1.475 5.485 -4 7 C-4.66 6.34 -5.32 5.68 -6 5 C-5.34 5 -4.68 5 -4 5 C-4 4.34 -4 3.68 -4 3 C-3.34 3 -2.68 3 -2 3 C-2 2.34 -2 1.68 -2 1 C-1.34 0.67 -0.68 0.34 0 0 Z " fill="#2F3030" transform="translate(121,302)"/>
<path d="M0 0 C0.33 0 0.66 0 1 0 C1.21278058 4.46839215 0.59138085 7.82262526 -1 12 C-1.33 12 -1.66 12 -2 12 C-2.28571429 3.42857143 -2.28571429 3.42857143 0 0 Z " fill="#090909" transform="translate(148,248)"/>
<path d="M0 0 C-2.68841859 2.25245881 -4.64641875 3.88213958 -8 5 C-8.66 4.34 -9.32 3.68 -10 3 C-9 1 -9 1 -7.25 0.375 C-4.79549443 -0.03408426 -2.4840589 -0.06900164 0 0 Z " fill="#424142" transform="translate(230,238)"/>
<path d="M0 0 C0.99 0 1.98 0 3 0 C3 1.32 3 2.64 3 4 C3.66 4 4.32 4 5 4 C5 4.66 5 5.32 5 6 C3.68 5.67 2.36 5.34 1 5 C0.67 3.35 0.34 1.7 0 0 Z " fill="#0B0B0B" transform="translate(252,302)"/>
<path d="M0 0 C3.3 0 6.6 0 10 0 C10 0.33 10 0.66 10 1 C8.906875 1.309375 7.81375 1.61875 6.6875 1.9375 C4.44592006 2.58337897 2.2130649 3.2623117 0 4 C0 2.68 0 1.36 0 0 Z " fill="#050505" transform="translate(363,277)"/>
<path d="M0 0 C-1.26418246 0.69965443 -2.53665402 1.38434763 -3.8125 2.0625 C-4.52019531 2.44535156 -5.22789063 2.82820313 -5.95703125 3.22265625 C-8 4 -8 4 -11 3 C-10 1 -10 1 -6.625 -0.1875 C-3 -1 -3 -1 0 0 Z " fill="#6E6F6F" transform="translate(130,332)"/>
<path d="M0 0 C2 3.75 2 3.75 2 6 C1.01 6.495 1.01 6.495 0 7 C-1.13350534 9.01669827 -1.13350534 9.01669827 -2 11 C-3 9 -3 9 -2.44140625 6.8359375 C-2.15136719 6.02382813 -1.86132812 5.21171875 -1.5625 4.375 C-1.27503906 3.55773437 -0.98757813 2.74046875 -0.69140625 1.8984375 C-0.46324219 1.27195312 -0.23507812 0.64546875 0 0 Z " fill="#434343" transform="translate(358,288)"/>
<path d="M0 0 C0.33 0.99 0.66 1.98 1 3 C1.66 3 2.32 3 3 3 C3 4.98 3 6.96 3 9 C2.34 9 1.68 9 1 9 C0.67 6.03 0.34 3.06 0 0 Z " fill="#080808" transform="translate(304,286)"/>
<path d="M0 0 C1.65 0.33 3.3 0.66 5 1 C4.67 2.32 4.34 3.64 4 5 C4 4.01 4 3.02 4 2 C0.88214887 2.64644661 0.88214887 2.64644661 0 5 C-0.66 5 -1.32 5 -2 5 C-1.34 3.35 -0.68 1.7 0 0 Z " fill="#9C9C9C" transform="translate(156,262)"/>
<path d="M0 0 C2.29633824 3.44450737 2.54016485 5.93812283 3 10 C1.5 8.9375 1.5 8.9375 0 7 C-0.1875 3.3125 -0.1875 3.3125 0 0 Z " fill="#0A0B0B" transform="translate(175,276)"/>
<path d="M0 0 C1.98 0 3.96 0 6 0 C5.401875 0.226875 4.80375 0.45375 4.1875 0.6875 C1.43648112 2.33811133 0.47515363 4.1972081 -1 7 C-2 4 -2 4 -1.0625 1.8125 C-0.5365625 0.9153125 -0.5365625 0.9153125 0 0 Z " fill="#050605" transform="translate(296,277)"/>
</svg>
